<svg xmlns="http://www.w3.org/2000/svg" viewBox="0 0 256 256">
  <defs>
    <linearGradient id="bg" x1="0%" y1="0%" x2="100%" y2="100%">
      <stop offset="0%" style="stop-color:#1a1a2e"/>
      <stop offset="100%" style="stop-color:#16213e"/>
    </linearGradient>
    <linearGradient id="accent" x1="0%" y1="0%" x2="100%" y2="100%">
      <stop offset="0%" style="stop-color:#e94560"/>
      <stop offset="100%" style="stop-color:#ff6b6b"/>
    </linearGradient>
  </defs>
  
  <!-- Background -->
  <rect width="256" height="256" rx="48" fill="url(#bg)"/>
  
  <!-- Controller shape -->
  <path d="M128 48 C80 48, 40 88, 40 136 C40 184, 80 208, 128 208 C176 208, 216 184, 216 136 C216 88, 176 48, 128 48 Z" 
        fill="url(#accent)" opacity="0.2"/>
  
  <!-- D-pad -->
  <g transform="translate(64, 100)">
    <rect x="16" y="0" width="24" height="56" rx="4" fill="#fff"/>
    <rect x="0" y="16" width="56" height="24" rx="4" fill="#fff"/>
  </g>
  
  <!-- Buttons -->
  <circle cx="176" cy="112" r="12" fill="#ff6b6b"/>
  <circle cx="196" cy="132" r="12" fill="#feca57"/>
  <circle cx="156" cy="132" r="12" fill="#10b981"/>
  <circle cx="176" cy="152" r="12" fill="#3b82f6"/>
  
  <!-- Center design -->
  <circle cx="128" cy="180" r="8" fill="#fff" opacity="0.5"/>
</svg>